<svg width="20" height="20" viewBox="0 0 20 20" fill="none" xmlns="http://www.w3.org/2000/svg">
<path fill-rule="evenodd" clip-rule="evenodd" d="M19.7071 1.70711C20.0976 1.31658 20.0976 0.683417 19.7071 0.292893C19.3166 -0.0976311 18.6834 -0.0976311 18.2929 0.292893L14 4.58579V0.999993C14 0.58797 13.5296 0.35278 13.2 0.599993L6 5.99999H3C2.44772 5.99999 2 6.44771 2 6.99999V13C2 13.5523 2.44772 14 3 14H4.58579L0.292893 18.2929C-0.0976311 18.6834 -0.0976311 19.3166 0.292893 19.7071C0.683417 20.0976 1.31658 20.0976 1.70711 19.7071L19.7071 1.70711ZM13.2 19.4L8.47339 15.855L14 10.3284V19C14 19.412 13.5296 19.6472 13.2 19.4Z" fill="#9FFF25"/>
</svg>
