<svg width="340" height="352" viewBox="0 0 340 352" fill="none" xmlns="http://www.w3.org/2000/svg">
<path d="M108.68 16.2778C109.649 1.63813 127.463 -4.98036 137.757 5.47474L203.321 72.0701C207.556 76.3722 213.756 78.1053 219.608 76.6233L310.203 53.6823C324.425 50.0807 336.225 64.9776 329.462 77.9979L286.387 160.932C283.604 166.29 283.872 172.722 287.09 177.83L336.903 256.901C344.723 269.315 334.202 285.14 319.729 282.732L227.543 267.393C221.587 266.402 215.553 268.644 211.69 273.283L151.882 345.092C142.492 356.366 124.19 351.25 122.008 336.741L108.109 244.327C107.211 238.357 103.214 233.311 97.6084 231.069L10.8316 196.379C-2.79185 190.933 -3.58156 171.946 9.54262 165.387L93.1391 123.611C98.5395 120.912 102.103 115.551 102.502 109.527L108.68 16.2778Z" fill="white"/>
</svg>
