<svg width="501" height="478" viewBox="0 0 501 478" fill="none" xmlns="http://www.w3.org/2000/svg">
<path d="M234.99 10.5563C240.998 -2.82909 260.002 -2.82909 266.01 10.5563L325.994 144.206C328.466 149.713 333.674 153.497 339.676 154.146L485.32 169.895C499.907 171.472 505.779 189.546 494.905 199.396L386.334 297.744C381.859 301.797 379.87 307.919 381.107 313.828L411.136 457.21C414.144 471.571 398.769 482.741 386.041 475.443L258.956 402.576C253.719 399.573 247.281 399.573 242.044 402.576L114.959 475.443C102.231 482.741 86.8563 471.571 89.8637 457.21L119.893 313.828C121.13 307.919 119.141 301.797 114.666 297.744L6.09459 199.396C-4.77922 189.546 1.09328 171.472 15.68 169.895L161.324 154.146C167.326 153.497 172.534 149.713 175.006 144.206L234.99 10.5563Z" fill="white"/>
</svg>
