<svg width="560" height="570" viewBox="0 0 560 570" fill="none" xmlns="http://www.w3.org/2000/svg">
<path d="M309.166 6.93062C317.942 -4.82739 336.49 -0.693492 339.442 13.6782L374.09 182.356C375.304 188.269 379.564 193.095 385.281 195.034L548.356 250.345C562.25 255.057 564.05 273.975 551.294 281.224L401.579 366.3C396.33 369.282 393.057 374.825 392.98 380.862L390.769 553.046C390.581 567.717 373.145 575.275 362.309 565.384L235.133 449.286C230.674 445.215 224.391 443.815 218.626 445.607L54.1855 496.713C40.1748 501.067 27.5984 486.82 33.6576 473.458L104.774 316.63C107.267 311.132 106.657 304.723 103.171 299.794L3.7521 159.194C-4.71865 147.215 4.94479 130.852 19.5253 132.485L190.654 151.658C196.653 152.33 202.559 149.77 206.17 144.932L309.166 6.93062Z" fill="white"/>
</svg>
