<svg width="624" height="655" viewBox="0 0 624 655" fill="none" xmlns="http://www.w3.org/2000/svg">
<path d="M225.474 16.0666C227.058 1.48061 245.134 -4.38399 254.98 6.49412L390.107 155.8C394.158 160.276 400.28 162.268 406.189 161.033L603.306 119.841C617.667 116.839 628.831 132.219 621.527 144.944L521.286 319.596C518.281 324.832 518.278 331.269 521.278 336.508L621.367 511.247C628.659 523.979 617.482 539.348 603.123 536.334L406.043 494.97C400.135 493.729 394.012 495.716 389.957 500.189L254.698 649.376C244.844 660.245 226.772 654.365 225.202 639.778L203.641 439.561C202.994 433.558 199.213 428.349 193.706 425.874L10.0233 343.337C-3.35948 337.324 -3.35117 318.32 10.0368 312.318L193.792 229.942C199.301 227.473 203.087 222.267 203.738 216.265L225.474 16.0666Z" fill="white"/>
</svg>
