<svg width="553" height="573" viewBox="0 0 553 573" fill="none" xmlns="http://www.w3.org/2000/svg">
<path d="M184.624 16.8017C185.594 2.16202 203.408 -4.45647 213.701 5.99862L334.51 128.708C338.746 133.01 344.945 134.743 350.798 133.261L517.728 90.9897C531.951 87.3881 543.75 102.285 536.987 115.305L457.616 268.121C454.833 273.479 455.101 279.91 458.319 285.018L550.106 430.716C557.926 443.129 547.404 458.955 532.932 456.547L363.068 428.283C357.113 427.292 351.079 429.534 347.215 434.173L237.012 566.49C227.623 577.764 209.321 572.647 207.138 558.139L181.528 387.855C180.63 381.885 176.634 376.839 171.028 374.598L11.1321 310.677C-2.49134 305.231 -3.28105 286.243 9.84312 279.685L163.879 202.707C169.279 200.008 172.843 194.648 173.242 188.624L184.624 16.8017Z" fill="white"/>
</svg>
