<svg width="38" height="38" viewBox="0 0 38 38" fill="none" xmlns="http://www.w3.org/2000/svg">
<path d="M18.0246 1.31824C18.2594 0.278685 19.7406 0.278686 19.9754 1.31824L21.9038 9.85512C22.056 10.5289 22.8291 10.8491 23.4131 10.4803L30.8132 5.80738C31.7143 5.23835 32.7617 6.28572 32.1926 7.18684L27.5197 14.5869C27.1509 15.1709 27.4711 15.944 28.1449 16.0962L36.6818 18.0246C37.7213 18.2594 37.7213 19.7406 36.6818 19.9754L28.1449 21.9038C27.4711 22.056 27.1509 22.8291 27.5197 23.4131L32.1926 30.8132C32.7617 31.7143 31.7143 32.7617 30.8132 32.1926L23.4131 27.5197C22.8291 27.1509 22.056 27.4711 21.9038 28.1449L19.9754 36.6818C19.7406 37.7213 18.2594 37.7213 18.0246 36.6818L16.0962 28.1449C15.944 27.4711 15.1709 27.1509 14.5869 27.5197L7.18684 32.1926C6.28572 32.7617 5.23835 31.7143 5.80738 30.8132L10.4803 23.4131C10.8491 22.8291 10.5289 22.056 9.85512 21.9038L1.31824 19.9754C0.278685 19.7406 0.278686 18.2594 1.31824 18.0246L9.85512 16.0962C10.5289 15.944 10.8491 15.1709 10.4803 14.5869L5.80738 7.18684C5.23835 6.28572 6.28572 5.23835 7.18684 5.80738L14.5869 10.4803C15.1709 10.8491 15.944 10.5289 16.0962 9.85512L18.0246 1.31824Z" fill="#9FFF25"/>
</svg>
